<svg width="1000" height="1000" viewBox="0 0 1000 1000" fill="none" xmlns="http://www.w3.org/2000/svg">
<circle cx="500" cy="500" r="500" fill="#FAF2E1"/>
<path d="M472.5 166L267 401C372.5 567.5 416.5 882 416.5 882M416.5 882C416.5 882 547 616 734 440L615.5 166M416.5 882L490 497.5M416.5 882C442 856 529.5 835.5 541.5 865.5C553.5 895.5 589.5 925.5 626.5 921.5C663.5 917.5 734 899.5 760 865.5" stroke="black"/>
<path d="M495 423.5C515.711 423.5 532.5 440.289 532.5 461C532.5 481.711 515.711 498.5 495 498.5C474.289 498.5 457.5 481.711 457.5 461C457.5 440.289 474.289 423.5 495 423.5Z" fill="#534E4E" fill-opacity="0.61"/>
<path d="M373 392C385.5 339 463.5 326.5 485 376.5M542.5 392C590.5 346.5 658 376.5 644 429" stroke="black"/>
</svg>
